<?xml version="1.0" standalone="no"?>
<!DOCTYPE svg PUBLIC "-//W3C//DTD SVG 20010904//EN"
 "http://www.w3.org/TR/2001/REC-SVG-20010904/DTD/svg10.dtd">
<svg version="1.0" xmlns="http://www.w3.org/2000/svg"
 width="208.000000pt" height="152.000000pt" viewBox="0 0 208.000000 152.000000"
 preserveAspectRatio="xMidYMid meet">

<g transform="translate(0.000000,152.000000) scale(0.100000,-0.100000)"
fill="#000000" stroke="none">
<path d="M1304 1486 c-197 -45 -271 -133 -521 -621 -175 -340 -192 -368 -328
-534 -127 -155 -200 -227 -290 -285 l-69 -46 756 0 756 0 79 58 c87 65 131
111 190 198 130 191 191 405 180 627 -15 303 -177 522 -437 593 -80 21 -242
27 -316 10z m116 -126 c23 -14 -30 -30 -101 -30 -43 0 -60 3 -57 12 8 24 127
38 158 18z m291 -95 c64 -33 101 -68 149 -141 57 -87 82 -157 82 -225 0 -55
-19 -112 -36 -106 -6 2 -19 44 -29 93 -27 132 -54 181 -153 272 -74 67 -124
126 -124 145 0 7 66 -15 111 -38z m-414 -107 c37 -40 31 -87 -15 -114 -27 -15
-26 -15 22 -10 27 4 58 6 69 6 18 0 17 2 -7 21 -32 25 -34 61 -5 90 21 21 59
20 86 -3 26 -22 9 -78 -27 -91 -8 -3 -2 -6 13 -6 20 -1 30 -7 34 -22 6 -20 6
-20 29 2 13 12 27 19 30 16 9 -9 25 -110 19 -116 -3 -2 -21 3 -41 12 -35 17
-35 17 -29 -2 7 -22 8 -22 -150 -41 -49 -7 -98 -14 -107 -16 -19 -5 -23 7 -33
84 l-7 52 39 1 c36 1 37 1 10 9 -44 13 -57 29 -57 70 0 69 82 106 127 58z"/>
</g>
</svg>
