<?xml version="1.0" standalone="no"?>
<!DOCTYPE svg PUBLIC "-//W3C//DTD SVG 20010904//EN"
 "http://www.w3.org/TR/2001/REC-SVG-20010904/DTD/svg10.dtd">
<svg version="1.0" xmlns="http://www.w3.org/2000/svg"
 width="376.000000pt" height="375.000000pt" viewBox="0 0 376.000000 375.000000"
 preserveAspectRatio="xMidYMid meet">

<g transform="translate(0.000000,375.000000) scale(0.100000,-0.100000)"
fill="#000000" stroke="none">
<path d="M565 3708 c-11 -6 -26 -18 -32 -26 -34 -42 5 -173 66 -225 49 -41 63
-35 39 18 -9 21 -8 36 5 79 24 76 22 131 -5 150 -26 19 -45 20 -73 4z m60
-118 c-4 -23 -9 -39 -12 -36 -3 2 -2 23 2 46 4 23 9 39 12 36 3 -2 2 -23 -2
-46z"/>
<path d="M344 3501 c-51 -13 -114 -53 -135 -88 -26 -42 -35 -128 -20 -190 7
-26 30 -87 52 -136 58 -129 61 -123 -82 -132 l-121 -7 7 -392 c4 -258 3 -428
-4 -501 -28 -276 -21 -1030 10 -1173 l11 -54 42 6 c22 3 66 8 97 12 l56 6 7
-45 c12 -76 67 -122 103 -86 9 9 16 2 29 -30 25 -63 69 -79 117 -41 14 11 28
33 32 49 6 27 8 28 35 18 22 -8 38 -8 64 1 26 10 40 10 60 1 21 -10 30 -9 53
6 26 17 27 17 38 0 33 -57 58 -76 94 -73 46 4 58 28 73 142 l11 86 137 0 138
0 93 -117 c121 -154 330 -361 449 -445 116 -82 303 -178 425 -217 177 -57 242
-66 455 -65 233 1 321 13 440 58 290 108 532 363 606 637 23 88 23 244 -1 328
-60 209 -293 402 -515 427 -107 12 -261 -44 -469 -169 -52 -32 -96 -55 -98
-53 -3 3 1 55 7 118 7 63 13 279 14 488 2 206 9 489 16 628 l14 253 58 30 c71
36 90 64 90 128 0 58 -26 108 -77 147 -31 24 -33 28 -37 100 -3 71 -6 78 -37
106 -27 24 -40 29 -73 26 -60 -4 -80 -36 -86 -138 -4 -63 -8 -80 -20 -80 -22
0 -94 -79 -88 -96 5 -12 -21 -13 -162 -8 -118 4 -272 0 -523 -15 -456 -27
-1049 -28 -1049 -2 0 8 55 98 85 140 31 43 32 72 1 108 -22 26 -30 28 -89 27
l-65 -1 0 66 c1 156 -115 248 -268 212z m151 -34 c38 -21 82 -80 95 -127 15
-57 8 -101 -32 -186 -28 -59 -33 -79 -32 -141 l1 -72 -71 5 c-120 8 -135 12
-150 42 -42 82 -90 232 -94 295 l-4 67 39 0 c32 0 46 -7 78 -40 21 -21 51 -42
67 -45 40 -9 91 10 116 44 l21 29 -22 10 c-14 7 -17 11 -7 11 16 1 22 53 8 67
-5 4 -8 2 -8 -4 0 -7 -7 -9 -17 -5 -12 5 -15 2 -10 -10 10 -27 -1 -19 -17 12
-8 15 -29 34 -46 41 -36 15 -61 7 -119 -39 -68 -52 -83 -49 -35 8 46 55 172
75 239 38z m-109 -38 c3 -6 1 -16 -5 -22 -8 -8 -11 -8 -11 1 0 19 -30 14 -31
-5 0 -12 -2 -13 -6 -5 -11 28 37 56 53 31z m54 -28 c13 -26 13 -31 -5 -31 -16
0 -38 34 -28 44 11 11 22 6 33 -13z m-140 -31 c0 -5 -2 -10 -4 -10 -3 0 -8 5
-11 10 -3 6 -1 10 4 10 6 0 11 -4 11 -10z m35 0 c3 -5 1 -10 -4 -10 -6 0 -11
5 -11 10 0 6 2 10 4 10 3 0 8 -4 11 -10z m115 -27 c0 -9 -7 -25 -17 -35 -18
-20 -43 -24 -43 -7 0 5 5 7 11 3 7 -4 10 -1 7 7 -6 14 18 49 34 49 4 0 8 -8 8
-17z m-85 -13 c3 -5 -1 -10 -9 -10 -8 0 -18 5 -21 10 -3 6 1 10 9 10 8 0 18
-4 21 -10z m121 -19 c-12 -19 -24 -12 -19 10 4 13 9 17 15 11 6 -6 7 -15 4
-21z m2168 -44 l28 -12 -42 0 c-36 0 -47 -6 -72 -35 l-29 -35 12 33 c11 31 43
62 64 62 5 -1 23 -6 39 -13z m-3 -37 c12 -7 19 -21 18 -38 l-1 -27 -7 25 c-6
21 -12 24 -36 22 -17 -2 -31 -5 -31 -5 -1 -1 1 -17 3 -35 5 -28 9 -33 29 -30
27 3 36 -15 10 -20 -26 -5 -66 25 -66 51 0 33 22 57 58 66 2 1 12 -4 23 -9z
m-1974 -77 c-3 -10 -5 -4 -5 12 0 17 2 24 5 18 2 -7 2 -21 0 -30z m1900 -40
c22 -17 88 -17 101 0 5 6 12 21 15 32 4 17 5 17 6 -3 0 -13 -6 -39 -15 -58
-18 -38 -95 -124 -111 -124 -9 0 -13 24 -29 180 -4 40 -3 42 6 15 5 -16 17
-36 27 -42z m-1879 -58 c0 -16 -2 -15 -8 5 -4 14 -8 34 -8 45 0 16 2 15 8 -5
4 -14 8 -34 8 -45z m19 23 c-3 -8 -6 -5 -6 6 -1 11 2 17 5 13 3 -3 4 -12 1
-19z m-58 -108 c1 -13 0 -13 -9 0 -5 8 -9 24 -9 35 l0 20 9 -20 c5 -11 9 -27
9 -35z m1676 -25 c88 -8 186 -15 217 -15 31 0 59 -4 63 -10 3 -5 -11 -28 -31
-50 l-37 -41 -186 3 c-102 2 -395 0 -651 -5 -395 -7 -493 -6 -660 8 -192 17
-482 16 -793 -1 l-107 -6 -35 38 c-19 21 -35 41 -35 45 0 4 38 13 85 20 70 10
111 10 218 -1 225 -22 940 -25 1273 -5 159 9 323 20 364 24 115 12 143 12 315
-4z m310 -546 c-9 -180 -15 -459 -14 -620 3 -356 -11 -525 -44 -551 -12 -10
-26 -18 -31 -18 -16 0 10 839 34 1125 6 61 10 178 10 261 0 161 12 252 38 297
17 28 17 27 20 -70 2 -54 -4 -245 -13 -424z m-2533 439 c23 -31 24 -38 17
-103 -4 -38 -16 -207 -25 -374 -19 -340 -16 -437 21 -861 13 -151 26 -332 27
-401 l3 -126 -37 -47 c-20 -27 -39 -53 -41 -59 -12 -33 -17 25 -29 306 -12
307 -4 686 22 1017 6 73 6 214 -1 383 -6 148 -8 275 -5 283 8 22 21 17 48 -18z
m948 -28 c54 -5 400 -4 793 2 384 6 701 8 704 5 24 -25 26 -331 3 -552 -5 -50
-14 -277 -20 -505 -6 -228 -13 -451 -16 -495 l-6 -80 -121 -72 c-67 -40 -162
-91 -212 -115 l-90 -43 -225 1 c-287 1 -787 20 -910 34 -64 8 -206 9 -436 4
l-341 -6 -7 123 c-4 68 -16 237 -27 374 -27 337 -35 647 -20 815 6 74 16 218
21 319 6 102 13 187 16 190 9 9 478 19 644 14 85 -2 198 -8 250 -13z m2239
-1478 c49 -30 63 -52 34 -52 -24 0 -125 61 -131 79 -7 20 42 7 97 -27z m269
-311 c25 -52 27 -65 27 -181 0 -109 -3 -131 -23 -175 -25 -53 -78 -115 -99
-115 -18 0 -17 8 19 102 42 112 44 207 5 329 -15 47 -27 105 -27 130 l1 44 35
-39 c19 -22 47 -65 62 -95z m-2600 -51 c164 -15 652 -33 870 -34 100 0 182 -1
182 -2 0 -2 -30 -12 -67 -24 -43 -13 -82 -19 -112 -15 -25 2 -248 7 -496 10
-442 6 -675 0 -1060 -29 -93 -7 -172 -11 -174 -10 -6 5 49 85 62 89 13 5 403
21 570 23 60 1 161 -3 225 -8z m847 -105 c-93 -42 -342 -46 -425 -8 l-45 21
250 0 c218 0 246 -1 220 -13z m-911 -2 l38 -6 -4 -61 c-7 -76 -31 -128 -56
-119 -50 18 -82 75 -82 148 0 44 1 45 33 45 17 0 49 -3 71 -7z m-266 -12 c19
-12 28 -87 12 -106 -19 -22 -57 -18 -74 8 -17 27 -30 83 -21 97 7 12 65 13 83
1z m127 -3 c2 -7 6 -31 7 -52 3 -35 -1 -42 -25 -55 -27 -15 -29 -15 -48 8 -12
15 -19 38 -19 67 l0 44 40 0 c24 0 42 -5 45 -12z m-426 -9 c33 -12 41 -41 21
-80 -22 -40 -63 -8 -76 59 -7 36 2 39 55 21z m144 5 l47 -7 -2 -79 c-2 -67 -5
-82 -22 -94 -11 -8 -28 -14 -38 -14 -45 0 -78 87 -64 165 7 38 9 38 79 29z"/>
<path d="M240 3310 c0 -5 3 -10 8 -10 4 0 6 -33 4 -72 -4 -90 16 -134 71 -162
81 -39 156 8 178 112 7 31 16 61 21 67 4 5 8 20 8 32 l0 24 -45 -27 c-62 -36
-128 -31 -185 15 -40 32 -60 39 -60 21z m176 -91 c4 -8 9 -7 15 2 6 10 10 4
15 -19 5 -24 9 -30 15 -20 6 9 9 4 9 -15 0 -40 -49 -87 -90 -87 -53 0 -100 33
-100 70 0 5 14 25 31 45 24 27 39 35 64 35 19 0 37 -5 41 -11z"/>
<path d="M350 3204 c0 -8 5 -12 10 -9 6 4 8 11 5 16 -9 14 -15 11 -15 -7z"/>
<path d="M380 3210 c0 -5 5 -10 11 -10 5 0 7 5 4 10 -3 6 -8 10 -11 10 -2 0
-4 -4 -4 -10z"/>
<path d="M405 3190 c-3 -5 -1 -10 4 -10 6 0 11 5 11 10 0 6 -2 10 -4 10 -3 0
-8 -4 -11 -10z"/>
<path d="M852 799 c-12 -5 -22 -13 -22 -18 0 -16 20 -23 33 -12 7 5 23 8 35 4
17 -4 21 -2 16 10 -7 19 -34 26 -62 16z"/>
<path d="M580 775 c0 -9 5 -15 11 -13 6 2 11 8 11 13 0 5 -5 11 -11 13 -6 2
-11 -4 -11 -13z"/>
<path d="M620 781 c0 -6 5 -13 10 -16 6 -3 10 1 10 9 0 9 -4 16 -10 16 -5 0
-10 -4 -10 -9z"/>
<path d="M746 793 c-11 -11 -6 -23 9 -23 8 0 15 4 15 9 0 13 -16 22 -24 14z"/>
<path d="M705 780 c-3 -5 1 -10 9 -10 9 0 16 5 16 10 0 6 -4 10 -9 10 -6 0
-13 -4 -16 -10z"/>
<path d="M328 793 c-24 -6 -23 -23 2 -23 11 0 20 7 20 15 0 8 -1 14 -2 14 -2
-1 -11 -3 -20 -6z"/>
<path d="M430 778 c0 -8 15 -13 40 -13 31 -1 37 2 28 12 -14 17 -68 17 -68 1z"/>
<path d="M440 726 c0 -8 5 -18 10 -21 6 -3 10 1 10 9 0 8 -4 18 -10 21 -5 3
-10 -1 -10 -9z"/>
<path d="M480 725 c0 -8 5 -15 10 -15 6 0 10 7 10 15 0 8 -4 15 -10 15 -5 0
-10 -7 -10 -15z"/>
</g>
</svg>
