<?xml version="1.0" standalone="no"?>
<!DOCTYPE svg PUBLIC "-//W3C//DTD SVG 20010904//EN"
 "http://www.w3.org/TR/2001/REC-SVG-20010904/DTD/svg10.dtd">
<svg version="1.0" xmlns="http://www.w3.org/2000/svg"
 width="57.000000pt" height="61.000000pt" viewBox="0 0 57.000000 61.000000"
 preserveAspectRatio="xMidYMid meet">

<g transform="translate(0.000000,61.000000) scale(0.100000,-0.100000)"
fill="#000000" stroke="none">
<path d="M224 555 c-4 -9 -1 -43 5 -76 7 -34 11 -62 9 -63 -2 -2 -49 -16 -106
-32 -115 -33 -112 -28 -85 -124 14 -50 22 -64 56 -86 l40 -26 66 20 c36 11 74
23 84 27 14 6 20 1 30 -24 6 -17 18 -33 27 -35 61 -16 66 -16 83 13 9 15 37
53 62 84 l46 55 -20 39 c-30 58 -58 85 -158 157 -122 86 -132 91 -139 71z
m159 -113 c48 -35 87 -67 87 -71 0 -12 -91 -166 -109 -184 -18 -18 -19 -18
-30 30 -19 79 -15 78 -132 43 -57 -17 -108 -28 -115 -26 -6 2 -15 21 -18 41
-4 20 -9 42 -12 49 -4 11 106 53 187 72 l27 6 -14 51 c-8 29 -14 60 -14 70 0
17 1 17 28 0 15 -10 66 -46 115 -81z m-106 -224 c-3 -8 -6 -5 -6 6 -1 11 2 17
5 13 3 -3 4 -12 1 -19z m-90 -20 c-3 -8 -6 -5 -6 6 -1 11 2 17 5 13 3 -3 4
-12 1 -19z"/>
<path d="M240 120 c-10 -6 -11 -10 -2 -10 6 0 12 -9 12 -19 0 -11 4 -22 9 -25
5 -3 9 10 8 29 -1 38 -4 40 -27 25z"/>
<path d="M210 109 c0 -6 -7 -9 -15 -5 -16 6 -21 -9 -5 -19 5 -3 7 -12 4 -20
-4 -10 0 -12 15 -8 12 3 18 10 14 17 -4 6 -6 19 -5 29 2 9 1 17 -2 17 -3 0 -6
-5 -6 -11z"/>
<path d="M138 98 c-19 -7 -25 -14 -21 -26 5 -14 2 -14 -17 3 l-23 20 6 -25 c4
-14 7 -28 7 -32 0 -5 5 -8 11 -8 5 0 7 4 4 10 -3 5 -2 10 4 10 5 0 12 -4 15
-9 7 -10 56 -2 56 10 0 5 -8 9 -17 9 -15 0 -16 2 -3 10 13 9 13 10 0 10 -13 0
-13 1 0 10 22 14 9 19 -22 8z"/>
</g>
</svg>
