<?xml version="1.0" standalone="no"?>
<!DOCTYPE svg PUBLIC "-//W3C//DTD SVG 20010904//EN"
 "http://www.w3.org/TR/2001/REC-SVG-20010904/DTD/svg10.dtd">
<svg version="1.0" xmlns="http://www.w3.org/2000/svg"
 width="57.000000pt" height="61.000000pt" viewBox="0 0 57.000000 61.000000"
 preserveAspectRatio="xMidYMid meet">

<g transform="translate(0.000000,61.000000) scale(0.100000,-0.100000)"
fill="#000000" stroke="none">
<path d="M370 543 c0 -25 -1 -25 -19 -9 -15 14 -23 15 -44 5 -22 -10 -24 -15
-16 -37 5 -13 7 -27 4 -30 -3 -4 -8 4 -12 16 -4 15 -13 22 -30 22 -20 0 -24
-4 -18 -17 4 -10 10 -26 12 -35 3 -10 10 -18 15 -18 6 0 8 7 5 14 -5 11 1 14
23 11 16 -2 37 3 47 11 17 14 17 15 -4 9 -14 -4 -23 -2 -23 4 0 6 6 11 13 12
6 0 3 4 -8 9 -19 7 -19 8 -2 15 12 5 26 0 43 -15 l24 -23 0 41 c0 23 -2 42 -5
42 -3 0 -5 -12 -5 -27z m-100 -47 c0 -3 -4 -8 -10 -11 -5 -3 -10 -1 -10 4 0 6
5 11 10 11 6 0 10 -2 10 -4z"/>
<path d="M185 473 c4 -10 10 -26 12 -35 3 -10 10 -18 15 -18 6 0 8 7 4 15 -3
8 -1 15 4 15 6 0 10 9 10 20 0 15 -7 20 -26 20 -21 0 -25 -3 -19 -17z m35 3
c0 -3 -4 -8 -10 -11 -5 -3 -10 -1 -10 4 0 6 5 11 10 11 6 0 10 -2 10 -4z"/>
<path d="M82 453 c-23 -64 -55 -231 -54 -283 1 -95 9 -104 94 -119 145 -25
133 -26 157 8 18 25 20 34 11 52 -18 32 -8 42 69 74 72 31 81 40 95 106 6 28
-33 127 -58 148 -10 9 -36 1 -111 -34 -54 -25 -99 -44 -100 -43 -1 2 -18 29
-38 61 -20 31 -41 57 -46 57 -5 0 -13 -12 -19 -27z m64 -65 c15 -29 28 -55 30
-57 1 -2 18 6 36 17 48 29 159 73 169 66 9 -5 49 -78 49 -89 0 -3 -45 -26
-100 -51 -111 -52 -114 -57 -79 -125 11 -23 18 -43 15 -46 -3 -3 -29 2 -58 12
-29 9 -57 18 -63 20 -5 1 -23 7 -38 13 -16 7 -32 12 -36 12 -27 0 -29 29 -11
112 28 129 40 168 50 168 5 0 22 -24 36 -52z"/>
</g>
</svg>
